<svg width="123" height="123" viewBox="0 0 123 123" fill="none" xmlns="http://www.w3.org/2000/svg">
	<path d="M1 47.8639V40.0533L3.02105 32.9527L10.8526 24.0769L25.2526 14.1361L43.4421 7.0355L59.8632 2.77515L74.7684 1H92.7053L108.116 4.5503L114.684 9.16568L116.958 12.0059V15.2012M1 47.8639L3.02105 53.8994L10.0947 63.8402L19.1895 69.5207H28.2842L38.3895 67.3905L49.7579 63.8402L64.9158 56.3846L65.6938 55.9344M1 47.8639L1.75789 67.3905L7.82105 74.8462L16.4105 81.5917L24.2421 83.7219L33.3368 82.6568L49.7579 76.2663L64.9158 69.5207C66.7903 69.1048 67.8413 68.8716 69.7158 68.4556L71.9895 65.9704L71.2316 62.0651M69.2105 53.8994L70.7263 57.8047M69.2105 53.8994L65.6938 55.9344M69.2105 53.8994L70.2211 51.4142L71.9895 50.7041L80.5789 47.8639L82.8526 50.7041L84.3684 58.8698L87.1474 56.3846L85.3789 47.8639L84.3684 44.6686H79.8211L71.2316 47.1538L66.6842 50.7041L65.6938 55.9344M3.77895 53.8994L6.55789 47.1538L14.1368 38.6331L29.8 27.2722L52.2842 16.9763L62.8947 14.1361L74.7684 13.071L90.4316 14.1361L106.095 16.9763L112.916 19.4615L115.442 21.9467L116.958 15.2012M116.958 15.2012V18.3964L114.684 28.3373L108.116 38.6331L84.3684 60.2899L58.0947 81.5917L46.7263 92.9527L42.1789 99.6982L38.1368 106.799L37.1263 112.124L39.1474 118.515L42.9368 121L47.2316 118.515L52.5368 111.414L63.1474 96.1479L79.8211 80.1716L103.316 62.0651L113.926 50.7041L119.232 41.1183L121 34.7278L116.958 15.2012ZM69.2105 59.5799V61.7101L80.3263 58.8698L82.6 57.0947V54.6095L79.8211 55.9344L68.9579 59.2249M82.6 70.9408L81.5895 69.5207L82.0947 68.1006L83.6105 68.4556L83.8632 69.8757L82.8526 70.9408M71.9895 66.3254L72.4947 67.3905H74.2632M68.9579 69.5207L70.2211 70.9408M74.7684 74.8462L75.5263 76.2663H76.5368L76.7895 75.2012L76.5368 73.7811L75.7789 73.426L74.7684 73.7811V74.8462ZM89.1684 64.9053L88.6632 63.8402L89.4211 62.7751L90.4316 63.1302L90.9368 64.1953L90.4316 65.6154L89.1684 64.9053ZM95.7368 58.8698L96.2421 57.0947L97.5053 57.4497L98.0105 58.8698L97 59.9349L95.7368 58.8698ZM102.558 53.1893L103.316 54.6095L104.326 53.8994L104.832 52.8343L104.074 51.7692L102.811 52.1243L102.558 53.1893ZM109.632 46.0888L110.642 47.1538H111.653L111.905 45.7337L111.147 44.6686H110.137L109.632 46.0888Z" stroke="black" stroke-width="2" />
</svg>
